<?xml version="1.0" standalone="no"?>
<!DOCTYPE svg PUBLIC "-//W3C//DTD SVG 20010904//EN"
 "http://www.w3.org/TR/2001/REC-SVG-20010904/DTD/svg10.dtd">
<svg version="1.0" xmlns="http://www.w3.org/2000/svg"
 width="2171.000000pt" height="2171.000000pt" viewBox="0 0 2171.000000 2171.000000"
 preserveAspectRatio="xMidYMid meet">
<metadata>
Created by potrace 1.11, written by Peter Selinger 2001-2013
</metadata>
<g transform="translate(0.000000,2171.000000) scale(0.100000,-0.100000)"
fill="#000000" stroke="none">
<path d="M10418 21695 c-2 -2 -80 -6 -173 -9 -94 -4 -184 -9 -200 -11 -17 -1
-73 -6 -125 -10 -52 -3 -108 -8 -125 -10 -16 -2 -66 -7 -110 -10 -44 -3 -91
-8 -105 -10 -49 -7 -125 -17 -150 -20 -14 -1 -47 -5 -75 -9 -27 -4 -68 -9 -90
-12 -22 -2 -69 -9 -105 -15 -36 -6 -78 -13 -94 -15 -44 -6 -315 -54 -387 -69
-48 -9 -224 -46 -239 -50 -8 -2 -37 -9 -65 -15 -27 -6 -57 -13 -65 -15 -55
-12 -214 -52 -320 -82 -69 -19 -132 -36 -140 -38 -31 -8 -227 -67 -285 -86
-33 -11 -67 -22 -75 -24 -8 -2 -62 -20 -120 -40 -298 -104 -609 -224 -790
-307 -36 -16 -130 -59 -210 -95 -287 -130 -763 -382 -1045 -553 -448 -272
-914 -599 -1295 -909 -109 -89 -343 -285 -371 -311 -8 -8 -38 -35 -65 -59
-123 -109 -280 -258 -418 -397 -190 -189 -278 -283 -455 -479 -37 -40 -128
-146 -172 -199 -13 -16 -29 -34 -34 -40 -61 -65 -309 -384 -476 -611 -213
-290 -543 -813 -714 -1130 -26 -49 -62 -115 -78 -145 -34 -63 -201 -392 -202
-400 -1 -3 -17 -39 -37 -80 -33 -70 -46 -100 -101 -220 -104 -232 -312 -774
-370 -966 -8 -27 -32 -101 -52 -164 -21 -63 -41 -128 -45 -145 -5 -16 -25 -88
-45 -160 -20 -71 -52 -193 -71 -270 -19 -77 -38 -156 -44 -175 -12 -43 -97
-450 -105 -505 -3 -23 -8 -52 -11 -65 -6 -30 -21 -119 -29 -180 -4 -24 -8 -47
-10 -50 -2 -3 -7 -35 -10 -70 -4 -36 -8 -67 -10 -70 -2 -3 -6 -34 -10 -69 -4
-34 -8 -72 -11 -84 -2 -12 -6 -47 -9 -78 -3 -31 -7 -69 -9 -85 -2 -16 -7 -63
-11 -104 -4 -41 -9 -88 -11 -105 -1 -16 -5 -66 -9 -110 -3 -44 -8 -107 -10
-140 -27 -338 -27 -1298 0 -1480 2 -16 7 -73 10 -125 3 -52 8 -108 9 -125 2
-16 7 -64 10 -105 4 -41 9 -88 11 -105 2 -16 7 -52 10 -80 6 -59 13 -116 20
-165 11 -82 25 -177 29 -200 3 -14 12 -70 20 -125 9 -55 18 -111 21 -125 3
-14 9 -47 15 -75 5 -27 12 -66 15 -85 5 -31 58 -281 70 -335 3 -11 8 -33 11
-50 4 -16 11 -33 15 -36 11 -7 97 -345 97 -379 0 -28 62 -247 124 -440 210
-651 437 -1192 739 -1763 123 -231 295 -532 394 -687 13 -19 44 -69 70 -110
85 -132 118 -182 220 -330 102 -146 273 -381 285 -390 3 -3 17 -21 30 -40 13
-19 29 -40 35 -47 5 -7 17 -20 25 -30 8 -9 30 -38 50 -64 19 -25 55 -70 80
-100 25 -29 74 -87 109 -128 73 -88 155 -182 191 -221 442 -481 709 -734 1235
-1169 95 -78 402 -310 560 -422 514 -367 1228 -779 1770 -1022 55 -25 127 -57
160 -72 396 -179 977 -384 1454 -515 234 -65 683 -169 796 -185 22 -4 47 -8
55 -10 29 -9 236 -45 340 -61 122 -18 156 -23 190 -29 26 -4 82 -11 165 -20
28 -3 66 -7 85 -10 54 -7 113 -13 285 -30 284 -26 595 -39 960 -39 269 0 573
8 695 19 25 2 91 7 148 10 57 4 111 8 120 10 9 1 55 6 102 10 47 3 96 8 110
10 14 3 84 11 155 20 148 17 197 23 234 30 14 2 87 14 161 25 74 11 142 23
150 25 8 2 35 7 60 10 24 4 47 8 50 10 3 2 23 6 45 9 105 17 465 96 635 140 8
2 29 7 45 11 58 14 351 97 465 132 159 49 478 156 515 173 11 5 40 16 65 24
98 32 476 186 660 269 344 155 776 379 1102 572 126 74 171 103 396 249 187
122 515 353 642 453 137 108 328 260 336 268 6 5 33 28 60 50 302 248 725 655
1039 1000 50 54 97 106 105 115 16 16 161 186 195 229 11 13 34 41 51 60 48
57 158 193 174 217 8 12 63 84 121 160 373 489 721 1051 1020 1644 68 135 199
409 199 416 0 3 32 76 70 159 141 306 381 991 486 1385 8 30 22 78 30 106 8
28 16 60 18 70 2 11 13 55 25 99 11 44 22 91 25 105 3 14 10 43 15 65 22 85
88 409 106 513 3 17 7 46 10 62 3 17 7 44 10 60 12 71 15 89 25 155 21 134 27
179 35 250 3 28 8 66 10 85 2 19 7 56 10 83 2 26 7 71 11 100 6 56 9 89 20
212 8 102 19 269 30 475 4 80 4 761 0 860 -5 107 -15 288 -21 360 -2 30 -7 93
-10 140 -3 47 -8 96 -10 110 -2 14 -7 57 -10 95 -4 39 -8 81 -10 95 -2 14 -6
48 -9 75 -13 117 -17 145 -31 230 -8 50 -16 110 -19 135 -3 25 -8 55 -10 66
-2 12 -7 39 -10 60 -15 96 -64 346 -96 494 -4 19 -15 69 -24 110 -12 58 -86
352 -110 440 -2 8 -9 33 -14 55 -40 165 -206 668 -317 960 -31 83 -58 157 -59
165 -2 8 12 60 31 115 105 309 14 553 -253 674 -54 25 -80 56 -89 112 -3 19
-21 67 -41 106 -38 78 -85 125 -170 172 -41 22 -56 40 -101 116 -29 50 -62
109 -73 131 -22 44 -20 55 18 119 70 114 175 338 202 430 36 121 41 153 44
255 3 133 -26 219 -98 293 -117 121 -320 159 -469 90 -72 -34 -157 -100 -243
-190 l-62 -64 -108 143 c-59 79 -113 148 -118 155 -6 6 -22 26 -36 44 -31 41
-162 202 -170 209 -3 3 -16 18 -28 34 -12 15 -48 58 -81 95 -32 36 -78 89
-101 116 -205 239 -671 704 -944 940 -39 33 -77 67 -86 75 -8 8 -65 56 -125
106 -596 491 -1177 884 -1840 1244 -157 85 -503 258 -620 310 -27 12 -72 33
-100 45 -146 68 -395 169 -625 255 -147 54 -389 139 -414 145 -6 1 -18 5 -26
8 -23 9 -336 104 -405 122 -267 71 -588 149 -695 168 -77 15 -107 20 -125 24
-11 2 -31 6 -45 9 -14 2 -59 11 -100 19 -81 16 -113 21 -175 30 -22 3 -62 10
-90 15 -27 5 -115 18 -195 29 -135 18 -170 23 -290 36 -83 9 -135 15 -179 20
-25 3 -79 8 -120 10 -42 3 -94 7 -116 10 -22 2 -87 6 -145 10 -58 3 -136 8
-175 11 -67 6 -822 14 -827 9z"/>
</g>
</svg>
